<svg xmlns="http://www.w3.org/2000/svg" xmlns:xlink="http://www.w3.org/1999/xlink" viewBox="0 0 196 122.1"><defs><style>.cls-1{isolation:isolate;}.cls-2{fill:url(#linear-gradient);}.cls-3{mix-blend-mode:screen;fill:url(#linear-gradient-2);}.cls-4{font-size:14px;fill:#d6d6d6;font-family:Galvji;}.cls-5{font-size:12px;fill:#fcfcfc;font-family:Futura-CondensedMedium, Futura;font-weight:500;letter-spacing:0.04em;}.cls-6{fill:#f90;}.cls-10,.cls-11,.cls-12,.cls-6,.cls-7,.cls-8,.cls-9{fill-rule:evenodd;}.cls-7{fill:url(#linear-gradient-3);}.cls-8{fill:url(#linear-gradient-4);}.cls-9{fill:url(#linear-gradient-5);}.cls-10{fill:url(#linear-gradient-6);}.cls-11{fill:url(#linear-gradient-7);}.cls-12{fill:url(#linear-gradient-8);}</style><linearGradient id="linear-gradient" x1="61.65" y1="153.71" x2="136.24" y2="-36.45" gradientUnits="userSpaceOnUse"><stop offset="0" stop-color="#070707"/><stop offset="1" stop-color="#404040"/></linearGradient><linearGradient id="linear-gradient-2" x1="194.52" y1="58.55" x2="-100.09" y2="68.37" gradientUnits="userSpaceOnUse"><stop offset="0"/><stop offset="0.26" stop-color="#020202"/><stop offset="0.38" stop-color="#0a0a0a"/><stop offset="0.47" stop-color="#171717"/><stop offset="0.55" stop-color="#292929"/><stop offset="0.62" stop-color="#414141"/><stop offset="0.69" stop-color="#5e5e5e"/><stop offset="0.74" stop-color="#818181"/><stop offset="0.8" stop-color="#aaa"/><stop offset="0.85" stop-color="#d7d7d7"/><stop offset="0.89" stop-color="#fff"/></linearGradient><linearGradient id="linear-gradient-3" x1="111.52" y1="61.2" x2="127.23" y2="61.2" gradientUnits="userSpaceOnUse"><stop offset="0" stop-color="#fff"/><stop offset="0.48" stop-color="#d9d9d9"/><stop offset="0.66" stop-color="#acacac"/><stop offset="0.89" stop-color="#777"/><stop offset="1" stop-color="#626262"/></linearGradient><linearGradient id="linear-gradient-4" x1="59.88" y1="61.27" x2="86.68" y2="61.27" xlink:href="#linear-gradient-3"/><linearGradient id="linear-gradient-5" x1="129.14" y1="61.48" x2="147.19" y2="61.48" xlink:href="#linear-gradient-3"/><linearGradient id="linear-gradient-6" x1="150.16" y1="61.27" x2="166.5" y2="61.27" xlink:href="#linear-gradient-3"/><linearGradient id="linear-gradient-7" x1="90.12" y1="61.31" x2="109.14" y2="61.31" xlink:href="#linear-gradient-3"/><linearGradient id="linear-gradient-8" x1="37.97" y1="61.31" x2="56.99" y2="61.31" xlink:href="#linear-gradient-3"/></defs><g class="cls-1"><g id="Layer_1" data-name="Layer 1"><rect class="cls-2" width="196" height="122.1" rx="7.5"/><path class="cls-3" d="M188.5,0H50.68l72.55,122.1H188.5a7.5,7.5,0,0,0,7.5-7.5V7.5A7.5,7.5,0,0,0,188.5,0Z"/><text class="cls-4" transform="translate(146.19 21.78)">fmrl</text><text class="cls-5" transform="translate(18.72 21.78)">Gift Card</text><path class="cls-6" d="M117.71,80.24c-7.47,5.51-18.29,8.44-27.62,8.44A50,50,0,0,1,56.36,75.81c-.7-.63-.08-1.5.76-1a67.93,67.93,0,0,0,33.76,9,67.21,67.21,0,0,0,25.75-5.27C117.89,78,119,79.32,117.71,80.24Z"/><path class="cls-6" d="M120.82,76.69c-1-1.22-6.31-.58-8.72-.29-.73.08-.84-.55-.19-1,4.28-3,11.28-2.14,12.1-1.14s-.22,8-4.23,11.39c-.61.52-1.2.24-.92-.44C119.76,83,121.78,77.91,120.82,76.69Z"/><path class="cls-7" d="M112.27,54.18V51.26a.71.71,0,0,1,.74-.74h13.07a.73.73,0,0,1,.76.73v2.51a4.16,4.16,0,0,1-1,1.83l-6.77,9.67a14.47,14.47,0,0,1,7.46,1.61,1.32,1.32,0,0,1,.69,1.13v3.12c0,.43-.47.92-1,.66a15.08,15.08,0,0,0-13.82,0c-.45.24-.93-.25-.93-.68v-3a3.5,3.5,0,0,1,.49-2l7.85-11.26H113A.73.73,0,0,1,112.27,54.18Z"/><path class="cls-8" d="M64.57,72.4h-4a.75.75,0,0,1-.71-.68V51.31a.76.76,0,0,1,.77-.74h3.71a.75.75,0,0,1,.72.69v2.66h.07a5.27,5.27,0,0,1,5.24-3.78c2.49,0,4,1.21,5.16,3.78a5.87,5.87,0,0,1,10.1-1.54c1.26,1.71,1,4.21,1,6.4V71.66a.75.75,0,0,1-.77.74h-4a.75.75,0,0,1-.71-.74V60.84A25.46,25.46,0,0,0,81.08,57a2.06,2.06,0,0,0-2.33-1.77,2.65,2.65,0,0,0-2.38,1.68A12.3,12.3,0,0,0,76,60.84V71.66a.76.76,0,0,1-.77.74h-4a.75.75,0,0,1-.72-.74V60.84c0-2.28.37-5.63-2.45-5.63s-2.75,3.27-2.75,5.63V71.66A.76.76,0,0,1,64.57,72.4Z"/><path class="cls-9" d="M138.09,50.14c5.91,0,9.1,5.07,9.1,11.52,0,6.23-3.53,11.17-9.1,11.17-5.79,0-9-5.07-9-11.39S132.34,50.14,138.09,50.14Zm0,4.17c-2.93,0-3.12,4-3.12,6.49s0,7.82,3.08,7.82,3.23-4.3,3.23-6.92a18.84,18.84,0,0,0-.59-5.41A2.5,2.5,0,0,0,138.13,54.31Z"/><path class="cls-10" d="M154.85,72.4h-4a.75.75,0,0,1-.71-.74V51.24a.77.77,0,0,1,.77-.67h3.69a.77.77,0,0,1,.71.57v3.13h.07c1.11-2.8,2.67-4.13,5.42-4.13a5.22,5.22,0,0,1,4.64,2.41c1,1.63,1,4.38,1,6.36V71.75a.75.75,0,0,1-.76.65h-4a.77.77,0,0,1-.71-.65V60.67c0-2.24.26-5.5-2.48-5.5a2.61,2.61,0,0,0-2.31,1.63,9.2,9.2,0,0,0-.63,3.87v11A.76.76,0,0,1,154.85,72.4Z"/><path class="cls-11" d="M101.84,62.65a7.82,7.82,0,0,1-.74,4.22,3.23,3.23,0,0,1-2.75,1.81c-1.53,0-2.42-1.17-2.42-2.89,0-3.39,3-4,5.91-4Zm4,9.7a.83.83,0,0,1-.94.09,10,10,0,0,1-2.28-2.65c-2.18,2.22-3.73,2.89-6.55,2.89-3.35,0-6-2.07-6-6.2A6.75,6.75,0,0,1,94.36,60c2.16-.95,5.18-1.12,7.48-1.38v-.52a5.07,5.07,0,0,0-.48-2.88,2.66,2.66,0,0,0-2.23-1,3,3,0,0,0-3.2,2.39.83.83,0,0,1-.69.73l-3.86-.41a.71.71,0,0,1-.59-.83c.89-4.68,5.11-6.1,8.9-6.1a9,9,0,0,1,6,2c1.93,1.8,1.75,4.22,1.75,6.84V65a5.45,5.45,0,0,0,1.5,3.69c.25.36.31.79,0,1-.81.68-2.25,1.94-3,2.64Z"/><path class="cls-12" d="M49.7,62.65A7.83,7.83,0,0,1,49,66.87a3.23,3.23,0,0,1-2.75,1.81c-1.53,0-2.42-1.17-2.42-2.89,0-3.39,3-4,5.92-4Zm4,9.7a.83.83,0,0,1-.94.09,9.79,9.79,0,0,1-2.28-2.65c-2.19,2.22-3.73,2.89-6.56,2.89-3.35,0-6-2.07-6-6.2A6.74,6.74,0,0,1,42.22,60c2.15-.95,5.17-1.12,7.48-1.38v-.52a5.08,5.08,0,0,0-.49-2.88,2.66,2.66,0,0,0-2.23-1,3,3,0,0,0-3.2,2.39.83.83,0,0,1-.69.73l-3.85-.41a.71.71,0,0,1-.6-.83c.89-4.68,5.11-6.1,8.9-6.1a9,9,0,0,1,6,2c1.93,1.8,1.75,4.22,1.75,6.84V65a5.45,5.45,0,0,0,1.5,3.69.75.75,0,0,1,0,1c-.82.68-2.26,1.94-3.05,2.64Z"/></g></g></svg>