<svg xmlns="http://www.w3.org/2000/svg" xmlns:xlink="http://www.w3.org/1999/xlink" viewBox="0 0 196 122.1"><defs><style>.cls-1{isolation:isolate;}.cls-2{fill:url(#linear-gradient);}.cls-3{fill:url(#linear-gradient-2);}.cls-4{mix-blend-mode:screen;fill:url(#linear-gradient-3);}.cls-5{font-size:14px;fill:#d6d6d6;font-family:Galvji;}.cls-6{font-size:12px;fill:#fcfcfc;font-family:Futura-CondensedMedium, Futura;font-weight:500;letter-spacing:0.04em;}</style><linearGradient id="linear-gradient" x1="61.65" y1="153.71" x2="136.24" y2="-36.45" gradientUnits="userSpaceOnUse"><stop offset="0" stop-color="#070707"/><stop offset="1" stop-color="#404040"/></linearGradient><linearGradient id="linear-gradient-2" x1="155.54" y1="224.67" x2="78.53" y2="181.8" gradientTransform="matrix(1, 0, 0, -1, -16.77, 279.54)" gradientUnits="userSpaceOnUse"><stop offset="0.55" stop-color="#58595b" stop-opacity="0.99"/><stop offset="1" stop-opacity="0"/></linearGradient><linearGradient id="linear-gradient-3" x1="194.52" y1="58.55" x2="-100.09" y2="68.37" gradientUnits="userSpaceOnUse"><stop offset="0"/><stop offset="0.26" stop-color="#020202"/><stop offset="0.38" stop-color="#0a0a0a"/><stop offset="0.47" stop-color="#171717"/><stop offset="0.55" stop-color="#292929"/><stop offset="0.62" stop-color="#414141"/><stop offset="0.69" stop-color="#5e5e5e"/><stop offset="0.74" stop-color="#818181"/><stop offset="0.8" stop-color="#aaa"/><stop offset="0.85" stop-color="#d7d7d7"/><stop offset="0.89" stop-color="#fff"/></linearGradient></defs><g class="cls-1"><g id="Layer_1" data-name="Layer 1"><rect class="cls-2" width="196" height="122.1" rx="7.5"/><path id="path4" class="cls-3" d="M146.24,92.25a56.39,56.39,0,0,1-5.64,10.13,51.46,51.46,0,0,1-7.26,8.78,14.07,14.07,0,0,1-9.33,4.11,23.35,23.35,0,0,1-8.62-2.06,24.82,24.82,0,0,0-9.28-2,25.62,25.62,0,0,0-9.55,2,25.59,25.59,0,0,1-8.25,2.17q-4.78.21-9.54-4.22a54.29,54.29,0,0,1-7.6-9.09,63,63,0,0,1-8-15.95,58.62,58.62,0,0,1-3.37-19q0-10.54,4.56-18.17a26.88,26.88,0,0,1,9.55-9.66,25.74,25.74,0,0,1,12.91-3.64c2.53,0,5.86.79,10,2.33s6.76,2.32,7.92,2.32c.86,0,3.8-.91,8.78-2.74,4.71-1.69,8.68-2.39,11.94-2.12q13.23,1.06,19.86,10.46-11.84,7.17-11.72,20.06a22.14,22.14,0,0,0,7.27,16.68,24.05,24.05,0,0,0,7.26,4.77C147.51,89.08,146.9,90.69,146.24,92.25ZM126,12.63a22.37,22.37,0,0,1-5.74,14.67c-4.6,5.39-10.18,8.5-16.22,8a15.77,15.77,0,0,1-.12-2A23,23,0,0,1,110,18.5a23.38,23.38,0,0,1,7.41-5.57,22.09,22.09,0,0,1,8.48-2.4,18.47,18.47,0,0,1,.11,2.1Z"/><path class="cls-4" d="M188.5,0H50.68l72.55,122.1H188.5a7.5,7.5,0,0,0,7.5-7.5V7.5A7.5,7.5,0,0,0,188.5,0Z"/><text class="cls-5" transform="translate(146.19 21.78)">fmrl</text><text class="cls-6" transform="translate(18.7 21.78)">App Store &amp; iTunes</text></g></g></svg>