<svg xmlns="http://www.w3.org/2000/svg" xmlns:xlink="http://www.w3.org/1999/xlink" viewBox="0 0 196 122.1"><defs><style>.cls-1{isolation:isolate;}.cls-2{fill:url(#linear-gradient);}.cls-3{mix-blend-mode:screen;fill:url(#linear-gradient-2);}.cls-4{fill:url(#linear-gradient-3);}.cls-5{mix-blend-mode:multiply;fill:url(#linear-gradient-4);}.cls-13,.cls-6,.cls-7{fill:#d6d6d6;}.cls-7{fill-rule:evenodd;}.cls-8{fill:none;}.cls-9{fill:#fff;}.cls-10{fill:#ff5f00;}.cls-11{fill:#eb001b;}.cls-12{fill:#f79e1b;}.cls-13{font-size:14px;font-family:Galvji;}.cls-14{font-size:12px;fill:#fcfcfc;font-family:Futura-CondensedMedium, Futura;font-weight:500;letter-spacing:0.04em;}</style><linearGradient id="linear-gradient" x1="61.65" y1="153.71" x2="136.24" y2="-36.45" gradientUnits="userSpaceOnUse"><stop offset="0" stop-color="#070707"/><stop offset="1" stop-color="#404040"/></linearGradient><linearGradient id="linear-gradient-2" x1="194.52" y1="58.55" x2="-100.09" y2="68.37" gradientUnits="userSpaceOnUse"><stop offset="0"/><stop offset="0.26" stop-color="#020202"/><stop offset="0.38" stop-color="#0a0a0a"/><stop offset="0.47" stop-color="#171717"/><stop offset="0.55" stop-color="#292929"/><stop offset="0.62" stop-color="#414141"/><stop offset="0.69" stop-color="#5e5e5e"/><stop offset="0.74" stop-color="#818181"/><stop offset="0.8" stop-color="#aaa"/><stop offset="0.85" stop-color="#d7d7d7"/><stop offset="0.89" stop-color="#fff"/></linearGradient><linearGradient id="linear-gradient-3" x1="31.78" y1="26.5" x2="31.78" y2="78.63" gradientUnits="userSpaceOnUse"><stop offset="0" stop-color="#ffca3f"/><stop offset="0.1" stop-color="#ca7c22"/><stop offset="0.19" stop-color="#fddb7a"/><stop offset="0.42" stop-color="#ffad45"/><stop offset="0.55" stop-color="#a95f0d"/><stop offset="0.66" stop-color="#ffad45"/><stop offset="0.79" stop-color="#ffff9b"/><stop offset="0.87" stop-color="#ffed7c"/><stop offset="1" stop-color="#ffca3f"/></linearGradient><linearGradient id="linear-gradient-4" x1="31.78" y1="13.87" x2="31.78" y2="79.13" xlink:href="#linear-gradient-3"/></defs><g class="cls-1"><g id="original"><rect class="cls-2" width="196" height="122.1" rx="7.5"/><path class="cls-3" d="M188.5,0H50.68l72.55,122.1H188.5a7.5,7.5,0,0,0,7.5-7.5V7.5A7.5,7.5,0,0,0,188.5,0Z"/><rect class="cls-4" x="18.74" y="32.07" width="26.07" height="20.66" rx="3.72"/><path class="cls-5" d="M44.81,38.58V38.1H40v-6h-.48v6H35.69a4.28,4.28,0,0,0-3.67-3v-3h-.48v3a4.27,4.27,0,0,0-4,3H24v-6h-.48v6H18.74v.48h4.81v6.75H18.74v.48h4.81v6.91H24V45.81h3.41a4.3,4.3,0,0,0,4.1,3.33v3.58H32V49.11a4.29,4.29,0,0,0,3.77-3.3h3.77v6.91H40V45.81h4.77v-.48H42V38.58ZM27.37,45.33H24V38.58H27.4a5.16,5.16,0,0,0-.08.79,4.3,4.3,0,0,0,1,2.75,4.25,4.25,0,0,0-1,2.74C27.32,45,27.36,45.18,27.37,45.33Zm4.25,3.34a3.8,3.8,0,0,1-2.8-6.39l.15-.16L28.82,42a3.77,3.77,0,0,1-1-2.58,3.82,3.82,0,0,1,7.63,0,3.77,3.77,0,0,1-1,2.58l-.15.17.15.16a3.8,3.8,0,0,1-2.79,6.39Zm9.87-3.34H35.86c0-.15,0-.31,0-.47a4.25,4.25,0,0,0-1-2.74,4.3,4.3,0,0,0,1-2.75,5.16,5.16,0,0,0-.08-.79h5.66Z"/><path class="cls-6" d="M19.83,67l-.61-.64,1.83-2h1.52v9.1h-1v-8a.88.88,0,0,1,0-.34l0,0Z"/><path class="cls-6" d="M24.52,73.52V72.14a1,1,0,0,1,0-.31,1,1,0,0,1,.22-.23l4.31-3.93a.66.66,0,0,0,.21-.27,1.21,1.21,0,0,0,0-.38V65.86a1.07,1.07,0,0,0,0-.25s-.06-.09-.14-.15a.46.46,0,0,0-.18-.11,1,1,0,0,0-.3,0H26.38a1,1,0,0,0-.3,0,.65.65,0,0,0-.18.11.45.45,0,0,0-.14.15,1.07,1.07,0,0,0,0,.25v.25H24.65v-.52a.8.8,0,0,1,.31-.65l.31-.26a1,1,0,0,1,.63-.26h3.27a1,1,0,0,1,.63.26l.31.26a.8.8,0,0,1,.31.65v1.83a1.21,1.21,0,0,1,0,.38.54.54,0,0,1-.21.27L25.87,72a.88.88,0,0,0-.22.26.85.85,0,0,0,0,.33v.06h4.81v.91Z"/><path class="cls-6" d="M37.63,68.91l.51.42a.78.78,0,0,1,.23.23,1.55,1.55,0,0,1,0,.39v2.4a1,1,0,0,1,0,.36,1.14,1.14,0,0,1-.2.27l-.24.24a.87.87,0,0,1-.61.3H33.62a1,1,0,0,1-.63-.26L32.68,73a.81.81,0,0,1-.31-.65v-.52h1.09v.24a1.26,1.26,0,0,0,0,.26.57.57,0,0,0,.14.15,1.08,1.08,0,0,0,.18.11,1.53,1.53,0,0,0,.3,0h2.57a1.53,1.53,0,0,0,.3,0,.62.62,0,0,0,.18-.11c.08-.07.13-.11.14-.15a1.26,1.26,0,0,0,0-.26v-2a.64.64,0,0,0-.23-.49l-.2-.17a1.07,1.07,0,0,0-.27-.2,1.25,1.25,0,0,0-.33,0H34.2v-.84h1.9a1.29,1.29,0,0,0,.33,0,1.07,1.07,0,0,0,.27-.2l.19-.15a.77.77,0,0,0,.23-.23,1,1,0,0,0,0-.32V65.86a.69.69,0,0,0,0-.25.32.32,0,0,0-.13-.15.65.65,0,0,0-.18-.11,1.07,1.07,0,0,0-.3,0H34.37a1.07,1.07,0,0,0-.31,0,.65.65,0,0,0-.18.11.45.45,0,0,0-.14.15,1.07,1.07,0,0,0,0,.25v.25H32.63v-.52a.8.8,0,0,1,.31-.65l.32-.26a.92.92,0,0,1,.62-.26H37a.93.93,0,0,1,.62.26l.31.26a.81.81,0,0,1,.32.65v2.13a.55.55,0,0,1,0,.28.72.72,0,0,1-.2.2l-.38.31a.61.61,0,0,1-.36.17v.06A.61.61,0,0,1,37.63,68.91Z"/><path class="cls-6" d="M44.82,67.93h1.1v2.6h1.24v.91H45.92v2.08h-1.1V71.44h-4.6V70.37l4.45-6h1.22l-4.33,5.81a.75.75,0,0,1-.22.24v.06h3.48Z"/><path class="cls-6" d="M60.94,67.54h2.94a.93.93,0,0,1,.62.26l.31.26a.81.81,0,0,1,.32.65v3.64a.82.82,0,0,1-.32.65l-.31.26a1,1,0,0,1-.62.26H60a1,1,0,0,1-.62-.26L59,73a.84.84,0,0,1-.31-.65v-.52h1.09v.24a1.26,1.26,0,0,0,0,.26.57.57,0,0,0,.14.15,1.08,1.08,0,0,0,.18.11,1.53,1.53,0,0,0,.3,0H63.4l.3,0a1.08,1.08,0,0,0,.18-.11.57.57,0,0,0,.14-.15,1.26,1.26,0,0,0,0-.26V69a1.07,1.07,0,0,0,0-.25.45.45,0,0,0-.14-.15.65.65,0,0,0-.18-.11,1.07,1.07,0,0,0-.3,0H60.89a.92.92,0,0,0-.62.26.7.7,0,0,0-.32.52H58.86V64.42H65v.91H60v2.84H60c0-.09.1-.21.28-.35A1.2,1.2,0,0,1,60.94,67.54Z"/><path class="cls-6" d="M73.91,66.11H72.82v-.25a.69.69,0,0,0,0-.25.4.4,0,0,0-.13-.15.56.56,0,0,0-.19-.11,1,1,0,0,0-.29,0H69.06a1,1,0,0,0-.29,0,.56.56,0,0,0-.19.11.4.4,0,0,0-.13.15,1.07,1.07,0,0,0,0,.25v2.59h0l.06-.07q.46-.45.72-.45H72.8a1,1,0,0,1,.62.26l.31.26a.8.8,0,0,1,.31.65v3.25a.81.81,0,0,1-.31.65l-.31.26a1,1,0,0,1-.62.26H68.58a1,1,0,0,1-.62-.26L67.65,73a.81.81,0,0,1-.31-.65V65.59a.8.8,0,0,1,.31-.65l.31-.26a1,1,0,0,1,.62-.26h4.09a1,1,0,0,1,.62.26l.31.26a.8.8,0,0,1,.31.65Zm-1,6v-2.7a.69.69,0,0,0,0-.25A.4.4,0,0,0,72.8,69a.56.56,0,0,0-.19-.11,1,1,0,0,0-.3,0H69.39a1.34,1.34,0,0,0-.33,0,2.76,2.76,0,0,0-.32.17c-.2.12-.3.23-.31.33v2.71a1.26,1.26,0,0,0,0,.26s.06.08.13.15a.8.8,0,0,0,.19.11,1.48,1.48,0,0,0,.29,0h3.25a1.53,1.53,0,0,0,.3,0,.8.8,0,0,0,.19-.11c.07-.07.12-.11.13-.15A.8.8,0,0,0,73,72.07Z"/><path class="cls-6" d="M76.61,73.52l4.27-7.93a.6.6,0,0,1,.22-.26H75.47v-.91h6.67v1L77.8,73.52Z"/><path class="cls-6" d="M84.27,69.5l.61-.51a.64.64,0,0,1,.37-.17v-.06a.64.64,0,0,1-.37-.17l-.43-.34a.56.56,0,0,1-.2-.44V65.59a.8.8,0,0,1,.31-.65l.31-.26a1,1,0,0,1,.63-.26h4a1,1,0,0,1,.63.26l.31.26a.8.8,0,0,1,.31.65v2.22a.54.54,0,0,1-.21.44l-.43.34a.61.61,0,0,1-.36.17v.06a.61.61,0,0,1,.36.17l.62.51a.6.6,0,0,1,.18.51v2.34a.82.82,0,0,1-.32.65c-.06,0-.17.13-.31.26a1,1,0,0,1-.62.26H85.34a1,1,0,0,1-.63-.26A2.33,2.33,0,0,0,84.4,73a.84.84,0,0,1-.31-.65V70A.6.6,0,0,1,84.27,69.5Zm4.53-.14H86.17a.54.54,0,0,0-.48.16l-.29.24a.79.79,0,0,0-.19.19.85.85,0,0,0,0,.28v1.84a1.26,1.26,0,0,0,0,.26.57.57,0,0,0,.14.15,1.08,1.08,0,0,0,.18.11,1.53,1.53,0,0,0,.3,0h3.33l.3,0a1.08,1.08,0,0,0,.18-.11.57.57,0,0,0,.14-.15,1.26,1.26,0,0,0,0-.26V70.23a.85.85,0,0,0,0-.28.72.72,0,0,0-.2-.19l-.28-.24a1,1,0,0,0-.22-.14A.83.83,0,0,0,88.8,69.36Zm.19-4H86a1,1,0,0,0-.3,0,.46.46,0,0,0-.18.11c-.08.06-.13.11-.14.15a1.07,1.07,0,0,0,0,.25v1.69a.89.89,0,0,0,0,.29s.07.1.18.19l.33.27a.92.92,0,0,0,.21.13,1.62,1.62,0,0,0,.3,0h2.19a1.7,1.7,0,0,0,.3,0,.73.73,0,0,0,.2-.13l.34-.27c.11-.09.17-.15.18-.19a.89.89,0,0,0,0-.29V65.86a1.07,1.07,0,0,0,0-.25s-.06-.09-.14-.15a.65.65,0,0,0-.18-.11A1,1,0,0,0,89,65.33Z"/><path class="cls-6" d="M103,71.83h1.1v.24a.8.8,0,0,0,0,.26s0,.08.13.15a1.08,1.08,0,0,0,.18.11,1.76,1.76,0,0,0,.31,0h3.11a1.53,1.53,0,0,0,.3,0,.62.62,0,0,0,.18-.11c.08-.07.13-.11.14-.15a.8.8,0,0,0,0-.26V69.49h0l-.07.06c-.3.3-.54.46-.71.46h-3.54a1,1,0,0,1-.62-.26l-.31-.26a.81.81,0,0,1-.31-.65V65.59a.8.8,0,0,1,.31-.65l.31-.26a.93.93,0,0,1,.62-.26h4.21a1,1,0,0,1,.63.26l.31.26a.8.8,0,0,1,.31.65v6.76a.81.81,0,0,1-.31.65l-.31.26a1,1,0,0,1-.63.26h-4.08a1,1,0,0,1-.62-.26l-.31-.26a.82.82,0,0,1-.32-.65Zm1-6v2.7a.8.8,0,0,0,0,.26.4.4,0,0,0,.13.15.8.8,0,0,0,.19.11,1.48,1.48,0,0,0,.29,0h2.93a1.21,1.21,0,0,0,.33,0,1.72,1.72,0,0,0,.32-.17c.2-.12.3-.23.31-.32V65.86a.69.69,0,0,0,0-.25s-.06-.09-.14-.15a.46.46,0,0,0-.18-.11,1,1,0,0,0-.3,0h-3.25a1,1,0,0,0-.29,0,.56.56,0,0,0-.19.11.4.4,0,0,0-.13.15A.69.69,0,0,0,103.93,65.86Z"/><path class="cls-6" d="M113.14,64.42h5.15a.92.92,0,0,1,.62.26l.32.26a.83.83,0,0,1,.31.65v6.76a.84.84,0,0,1-.31.65l-.32.26a1,1,0,0,1-.62.26h-5.15a1,1,0,0,1-.62-.26l-.31-.26a.82.82,0,0,1-.32-.65V65.59a.81.81,0,0,1,.32-.65l.31-.26A1,1,0,0,1,113.14,64.42Zm5.31,7.65V65.86a1.07,1.07,0,0,0,0-.25.45.45,0,0,0-.14-.15.65.65,0,0,0-.18-.11,1.07,1.07,0,0,0-.3,0h-4.19a1.07,1.07,0,0,0-.3,0,.65.65,0,0,0-.18.11.32.32,0,0,0-.13.15.69.69,0,0,0,0,.25v6.21a.8.8,0,0,0,0,.26s0,.08.13.15a1.08,1.08,0,0,0,.18.11,1.7,1.7,0,0,0,.3,0h4.19l.3,0a1.08,1.08,0,0,0,.18-.11.57.57,0,0,0,.14-.15A1.26,1.26,0,0,0,118.45,72.07Z"/><path class="cls-6" d="M122.05,67l-.61-.64,1.83-2h1.52v9.1h-1v-8a1.24,1.24,0,0,1,0-.34l0,0Z"/><path class="cls-6" d="M126.74,73.52V72.14a1,1,0,0,1,0-.31,1,1,0,0,1,.22-.23l4.31-3.93a.76.76,0,0,0,.21-.27,1.21,1.21,0,0,0,0-.38V65.86a1.07,1.07,0,0,0,0-.25s-.06-.09-.14-.15a.65.65,0,0,0-.18-.11,1,1,0,0,0-.3,0H128.6a1,1,0,0,0-.3,0,.65.65,0,0,0-.18.11c-.08.06-.13.11-.14.15a1.07,1.07,0,0,0,0,.25v.25h-1.09v-.52a.8.8,0,0,1,.31-.65l.31-.26a1,1,0,0,1,.63-.26h3.27a1,1,0,0,1,.63.26l.31.26a.8.8,0,0,1,.31.65v1.83a1.21,1.21,0,0,1,0,.38.54.54,0,0,1-.21.27L128.09,72a.88.88,0,0,0-.22.26.85.85,0,0,0,0,.33v.06h4.81v.91Z"/><path class="cls-6" d="M149.6,68.91l.51.42a.78.78,0,0,1,.23.23,1.55,1.55,0,0,1,0,.39v2.4a1,1,0,0,1,0,.36,1.24,1.24,0,0,1-.21.27l-.23.24a.87.87,0,0,1-.61.3h-3.69a1,1,0,0,1-.63-.26l-.31-.26a.81.81,0,0,1-.31-.65v-.52h1.09v.24a1.26,1.26,0,0,0,0,.26s.06.08.14.15a1.08,1.08,0,0,0,.18.11,1.53,1.53,0,0,0,.3,0h2.57a1.53,1.53,0,0,0,.3,0,1.08,1.08,0,0,0,.18-.11c.08-.07.13-.11.14-.15a1.26,1.26,0,0,0,0-.26v-2a.62.62,0,0,0-.24-.49l-.19-.17a1.07,1.07,0,0,0-.27-.2,1.25,1.25,0,0,0-.33,0h-2.08v-.84h1.9a1.2,1.2,0,0,0,.32,0,.92.92,0,0,0,.28-.2l.19-.15a.93.93,0,0,0,.23-.23,1,1,0,0,0,0-.32V65.86a.69.69,0,0,0,0-.25.4.4,0,0,0-.13-.15.65.65,0,0,0-.18-.11,1.07,1.07,0,0,0-.3,0h-2.15a1.07,1.07,0,0,0-.31,0,.65.65,0,0,0-.18.11c-.08.06-.13.11-.14.15a1.07,1.07,0,0,0,0,.25v.25H144.6v-.52a.8.8,0,0,1,.31-.65l.31-.26a1,1,0,0,1,.63-.26H149a.93.93,0,0,1,.62.26l.31.26a.8.8,0,0,1,.31.65v2.13a.78.78,0,0,1,0,.28.72.72,0,0,1-.2.2l-.38.31a.64.64,0,0,1-.36.17v.06A.64.64,0,0,1,149.6,68.91Z"/><path class="cls-6" d="M156.79,67.93h1.09v2.6h1.25v.91h-1.25v2.08h-1.09V71.44h-4.6V70.37l4.45-6h1.22l-4.33,5.81a.75.75,0,0,1-.22.24v.06h3.48Z"/><path class="cls-6" d="M163.16,67.54h2.94a.93.93,0,0,1,.62.26l.32.26a.83.83,0,0,1,.31.65v3.64A.84.84,0,0,1,167,73l-.32.26a1,1,0,0,1-.62.26h-3.9a1,1,0,0,1-.63-.26l-.31-.26a.81.81,0,0,1-.31-.65v-.52H162v.24a1.26,1.26,0,0,0,0,.26.57.57,0,0,0,.14.15,1.08,1.08,0,0,0,.18.11,1.53,1.53,0,0,0,.3,0h2.94a1.7,1.7,0,0,0,.3,0,1.08,1.08,0,0,0,.18-.11c.08-.07.12-.11.13-.15a.8.8,0,0,0,0-.26V69a.69.69,0,0,0,0-.25.32.32,0,0,0-.13-.15.65.65,0,0,0-.18-.11,1.07,1.07,0,0,0-.3,0h-2.51a1,1,0,0,0-.63.26.72.72,0,0,0-.31.52h-1.09V64.42h6.11v.91h-5v2.84h.05c0-.09.11-.21.29-.35A1.2,1.2,0,0,1,163.16,67.54Z"/><path class="cls-6" d="M176.13,66.11H175v-.25a.69.69,0,0,0,0-.25s-.06-.09-.14-.15a.46.46,0,0,0-.18-.11,1,1,0,0,0-.3,0h-3.11a1,1,0,0,0-.3,0,.56.56,0,0,0-.19.11.4.4,0,0,0-.13.15.69.69,0,0,0,0,.25v2.59h0l.07-.07c.3-.3.54-.45.71-.45H175a1,1,0,0,1,.62.26l.31.26a.8.8,0,0,1,.31.65v3.25A.81.81,0,0,1,176,73l-.31.26a1,1,0,0,1-.62.26H170.8a1,1,0,0,1-.62-.26l-.31-.26a.81.81,0,0,1-.31-.65V65.59a.8.8,0,0,1,.31-.65l.31-.26a1,1,0,0,1,.62-.26h4.08a1,1,0,0,1,.63.26l.31.26a.8.8,0,0,1,.31.65Zm-1,6v-2.7a.69.69,0,0,0,0-.25A.4.4,0,0,0,175,69a.56.56,0,0,0-.19-.11,1,1,0,0,0-.29,0h-2.93a1.29,1.29,0,0,0-.33,0A2.76,2.76,0,0,0,171,69c-.2.12-.3.23-.31.33v2.71a.8.8,0,0,0,0,.26s.06.08.13.15a.8.8,0,0,0,.19.11,1.53,1.53,0,0,0,.3,0h3.25a1.48,1.48,0,0,0,.29,0,.8.8,0,0,0,.19-.11c.07-.07.12-.11.13-.15A.8.8,0,0,0,175.17,72.07Z"/><path class="cls-6" d="M24.53,101.87h0a1.88,1.88,0,0,1-.08-.52V95.69h.91v7.59h-.91l-4-6.09h0a1.57,1.57,0,0,1,.08.52v5.56h-.91V95.69h.91Z"/><path class="cls-6" d="M30.94,102.85h0q0,.12-.24.27a1.77,1.77,0,0,1-.27.14,1.26,1.26,0,0,1-.26,0H28.28a.77.77,0,0,1-.52-.22l-.26-.21a.68.68,0,0,1-.26-.55V101a.67.67,0,0,1,.26-.54l.26-.22a.81.81,0,0,1,.52-.21h2.2l.14.1a.31.31,0,0,1,.13.21h0V99.06a1.1,1.1,0,0,0,0-.21.44.44,0,0,0-.12-.12.52.52,0,0,0-.15-.09.73.73,0,0,0-.25,0H28.5a.75.75,0,0,0-.26,0,1,1,0,0,0-.27.19l-.65-.55.26-.21a1.23,1.23,0,0,1,.27-.19.75.75,0,0,1,.26,0h2.55a.79.79,0,0,1,.52.22l.26.21a.68.68,0,0,1,.26.55v3.24a.84.84,0,0,0,0,.21.36.36,0,0,0,.11.12.34.34,0,0,1,.12.13s0,.1,0,.21v.53h-.38a.72.72,0,0,1-.26,0,.73.73,0,0,1-.2-.13Q30.94,103,30.94,102.85Zm-2.79-1.62v.85a1,1,0,0,0,0,.21.32.32,0,0,0,.12.12.42.42,0,0,0,.15.09.69.69,0,0,0,.25,0H30l.27,0,.26-.14a.73.73,0,0,0,.23-.18.45.45,0,0,0,0-.21v-.74a1,1,0,0,0,0-.21.6.6,0,0,0-.12-.13.52.52,0,0,0-.15-.09H28.43a.42.42,0,0,0-.15.09.41.41,0,0,0-.12.13A1,1,0,0,0,28.15,101.23Z"/><path class="cls-6" d="M37.48,98.38h0q0-.09.21-.24l.16-.12.26-.14.27,0h1.72a.77.77,0,0,1,.52.22l.26.21a.68.68,0,0,1,.26.55v4.44h-.91V99.06a1.1,1.1,0,0,0,0-.21.32.32,0,0,0-.12-.12.42.42,0,0,0-.15-.09.73.73,0,0,0-.25,0H38.55l-.26,0a1.14,1.14,0,0,0-.27.14c-.17.1-.25.2-.26.28v4.22h-.91V99.06a.91.91,0,0,0,0-.21.36.36,0,0,0-.11-.12l-.15-.09a.73.73,0,0,0-.25,0h-1.1l-.26,0a1.14,1.14,0,0,0-.27.14.88.88,0,0,0-.23.18.45.45,0,0,0,0,.21v4.11h-.91V99.06a1.1,1.1,0,0,0,0-.21.44.44,0,0,0-.12-.12.3.3,0,0,1-.11-.13.78.78,0,0,1,0-.21v-.53h.38a.82.82,0,0,1,.27,0,1.23,1.23,0,0,1,.2.13.42.42,0,0,1,.17.27h0q0-.12.24-.27a1.77,1.77,0,0,1,.27-.14,1.26,1.26,0,0,1,.26,0h1.63a.79.79,0,0,1,.52.22A.77.77,0,0,1,37.48,98.38Z"/><path class="cls-6" d="M46.56,102.3l.65.55-.26.21a1.23,1.23,0,0,1-.27.19.72.72,0,0,1-.26,0H43.53a.81.81,0,0,1-.53-.22l-.26-.21a.71.71,0,0,1-.26-.55V98.84a.71.71,0,0,1,.26-.55l.26-.21a.81.81,0,0,1,.53-.22h2.52a.9.9,0,0,1,.52.22l.27.21a.65.65,0,0,1,.26.55v2.22H43.39v1a.84.84,0,0,0,0,.21.32.32,0,0,0,.12.12.42.42,0,0,0,.15.09.66.66,0,0,0,.25,0H46a.72.72,0,0,0,.26,0A1,1,0,0,0,46.56,102.3Zm-.37-2V99.06a.56.56,0,0,0,0-.21.36.36,0,0,0-.11-.12.42.42,0,0,0-.15-.09.73.73,0,0,0-.25,0H43.93a.66.66,0,0,0-.25,0,.42.42,0,0,0-.15.09.32.32,0,0,0-.12.12.91.91,0,0,0,0,.21v1.29Z"/><path class="cls-6" d="M55,99.81H52.42a.79.79,0,0,1-.52-.22l-.29-.24a.57.57,0,0,1-.23-.44V96.67a.67.67,0,0,1,.26-.54l.26-.22a.84.84,0,0,1,.52-.22H55.3a.82.82,0,0,1,.52.22l.26.22a.65.65,0,0,1,.27.54v.43h-.92v-.2a1,1,0,0,0,0-.21s-.05-.08-.12-.13a.42.42,0,0,0-.15-.09,1.07,1.07,0,0,0-.25,0H52.82a1.14,1.14,0,0,0-.25,0l-.15.09a.3.3,0,0,0-.11.13.78.78,0,0,0,0,.21v1.71a.78.78,0,0,0,0,.21.36.36,0,0,0,.11.12l.15.1h2.84a.82.82,0,0,1,.52.22l.26.22a.65.65,0,0,1,.26.54v2.27a.68.68,0,0,1-.26.55l-.26.21a.77.77,0,0,1-.52.22h-3.1a.81.81,0,0,1-.52-.22l-.26-.21a.71.71,0,0,1-.26-.55v-.43h.91v.21a.84.84,0,0,0,0,.21.36.36,0,0,0,.11.12l.15.09a.73.73,0,0,0,.25,0H55a.73.73,0,0,0,.25,0,.42.42,0,0,0,.15-.09.32.32,0,0,0,.12-.12,1,1,0,0,0,0-.21v-1.82a1.16,1.16,0,0,0,0-.22.32.32,0,0,0-.12-.12.42.42,0,0,0-.15-.09A1.14,1.14,0,0,0,55,99.81Z"/><path class="cls-6" d="M60.66,103.28H59a.77.77,0,0,1-.52-.22l-.26-.21a.68.68,0,0,1-.26-.55V97.86h.91v4.22a1,1,0,0,0,0,.21.32.32,0,0,0,.12.12.42.42,0,0,0,.15.09.69.69,0,0,0,.25,0h1.17l.26,0a1.77,1.77,0,0,0,.27-.14.73.73,0,0,0,.23-.18.45.45,0,0,0,0-.21V97.86h.91v4.22a.53.53,0,0,0,0,.21.28.28,0,0,0,.11.12.3.3,0,0,1,.11.13.78.78,0,0,1,0,.21v.53h-.38a.82.82,0,0,1-.27,0,1.23,1.23,0,0,1-.2-.13.42.42,0,0,1-.17-.27h0q0,.12-.24.27a1.77,1.77,0,0,1-.27.14Z"/><path class="cls-6" d="M63.79,97.86h.38a.82.82,0,0,1,.27,0,.91.91,0,0,1,.19.13q.18.15.18.27h0q0-.12.24-.27a1.77,1.77,0,0,1,.27-.14,1.26,1.26,0,0,1,.26,0h1a.81.81,0,0,1,.52.22l.26.21-.65.55-.13-.11-.15-.09a.73.73,0,0,0-.25,0h-.47l-.26,0a1.14,1.14,0,0,0-.27.14A.88.88,0,0,0,65,99a.45.45,0,0,0,0,.21v4.11h-.91V99.06a.91.91,0,0,0,0-.21.36.36,0,0,0-.11-.12.3.3,0,0,1-.11-.13.5.5,0,0,1,0-.21Z"/><path class="cls-6" d="M68.32,97.86h.38a.72.72,0,0,1,.26,0,.92.92,0,0,1,.21.13.42.42,0,0,1,.17.27h0q0-.12.24-.27a1.77,1.77,0,0,1,.27-.14,1.26,1.26,0,0,1,.26,0h1.92a.79.79,0,0,1,.52.22l.26.21a.71.71,0,0,1,.26.55v4.44H72.2V99.06a.91.91,0,0,0,0-.21.36.36,0,0,0-.11-.12l-.15-.09a.73.73,0,0,0-.25,0H70.28l-.26,0a1.14,1.14,0,0,0-.27.14.73.73,0,0,0-.23.18.45.45,0,0,0,0,.21v4.11h-.91V99.06a.91.91,0,0,0,0-.21.28.28,0,0,0-.11-.12.24.24,0,0,1-.11-.13.78.78,0,0,1,0-.21Z"/><path class="cls-6" d="M78.22,102.85h0q0,.12-.24.27a2.65,2.65,0,0,1-.26.14l-.27,0H75.56a.77.77,0,0,1-.52-.22l-.26-.21a.71.71,0,0,1-.26-.55V101a.7.7,0,0,1,.26-.54l.26-.22a.81.81,0,0,1,.52-.21h2.2l.14.1a.28.28,0,0,1,.13.21h0V99.06a1.1,1.1,0,0,0,0-.21.32.32,0,0,0-.12-.12.42.42,0,0,0-.15-.09.69.69,0,0,0-.25,0H75.79a.58.58,0,0,0-.53.22l-.65-.55.26-.21a1.26,1.26,0,0,1,.26-.19.82.82,0,0,1,.27,0h2.54a.77.77,0,0,1,.52.22l.26.21a.68.68,0,0,1,.26.55v3.24a.84.84,0,0,0,0,.21.36.36,0,0,0,.11.12c.07,0,.11.09.12.13a1,1,0,0,1,0,.21v.53h-.37a.78.78,0,0,1-.27,0,.73.73,0,0,1-.2-.13Q78.22,103,78.22,102.85Zm-2.79-1.62v.85a.53.53,0,0,0,0,.21s0,.07.11.12a.42.42,0,0,0,.15.09.73.73,0,0,0,.25,0h1.32l.27,0a2.65,2.65,0,0,0,.26-.14.73.73,0,0,0,.23-.18.45.45,0,0,0,0-.21v-.74a1,1,0,0,0,0-.21.41.41,0,0,0-.12-.13.42.42,0,0,0-.15-.09H75.71a.42.42,0,0,0-.15.09c-.07.06-.11.1-.11.13A.5.5,0,0,0,75.43,101.23Z"/><path class="cls-6" d="M84.76,98.38h0q0-.09.21-.24l.16-.12a1.77,1.77,0,0,1,.27-.14,1.26,1.26,0,0,1,.26,0h1.73a.81.81,0,0,1,.52.22l.26.21a.71.71,0,0,1,.26.55v4.44h-.91V99.06a.91.91,0,0,0,0-.21.36.36,0,0,0-.11-.12l-.15-.09a.76.76,0,0,0-.25,0h-1.2l-.26,0a1.14,1.14,0,0,0-.27.14c-.16.1-.25.2-.26.28v4.22h-.91V99.06a1.1,1.1,0,0,0,0-.21.32.32,0,0,0-.12-.12.42.42,0,0,0-.15-.09.73.73,0,0,0-.25,0H82.51l-.27,0a1.38,1.38,0,0,0-.27.14.78.78,0,0,0-.22.18.42.42,0,0,0,0,.21v4.11H80.8V99.06a1.1,1.1,0,0,0,0-.21.32.32,0,0,0-.12-.12.3.3,0,0,1-.11-.13.78.78,0,0,1,0-.21v-.53h.38a.82.82,0,0,1,.27,0,.91.91,0,0,1,.2.13.38.38,0,0,1,.17.27h0q0-.12.24-.27a1.41,1.41,0,0,1,.26-.14l.27,0H84a1,1,0,0,1,.76.52Z"/><path class="cls-6" d="M93.84,102.3l.65.55-.26.21a1.62,1.62,0,0,1-.26.19.82.82,0,0,1-.27,0H90.81a.77.77,0,0,1-.52-.22l-.26-.21a.68.68,0,0,1-.26-.55V98.84a.68.68,0,0,1,.26-.55l.26-.21a.77.77,0,0,1,.52-.22h2.52a.9.9,0,0,1,.52.22l.27.21a.63.63,0,0,1,.26.55v2.22h-3.7v1a1,1,0,0,0,0,.21.32.32,0,0,0,.12.12.42.42,0,0,0,.15.09.69.69,0,0,0,.25,0h2.1a.82.82,0,0,0,.27,0A1.14,1.14,0,0,0,93.84,102.3Zm-.37-2V99.06a1.1,1.1,0,0,0,0-.21.32.32,0,0,0-.12-.12.42.42,0,0,0-.15-.09.73.73,0,0,0-.25,0H91.21a.69.69,0,0,0-.25,0,.42.42,0,0,0-.15.09.32.32,0,0,0-.12.12,1.1,1.1,0,0,0,0,.21v1.29Z"/><path class="cls-6" d="M37.6,81.73h3.61a.7.7,0,0,1,.44.18l.22.18a.6.6,0,0,1,.22.46v4.74a.58.58,0,0,1-.22.45l-.22.19a.7.7,0,0,1-.44.18H37.6a.7.7,0,0,1-.44-.18L37,87.74a.55.55,0,0,1-.22-.45V82.55a.57.57,0,0,1,.22-.46l.21-.18A.7.7,0,0,1,37.6,81.73Zm3.72,5.37V82.74a.77.77,0,0,0,0-.18s0-.06-.1-.1a.32.32,0,0,0-.13-.08H37.73a.41.41,0,0,0-.13.08.26.26,0,0,0-.09.1.62.62,0,0,0,0,.18V87.1a.49.49,0,0,0,0,.17.27.27,0,0,0,.09.11l.13.08h3.35l.13-.08a.24.24,0,0,0,.1-.11A.63.63,0,0,0,41.32,87.1Z"/><path class="cls-6" d="M43.85,83.57l-.43-.45,1.28-1.39h1.07v6.38h-.71V82.48a.56.56,0,0,1,0-.24l0,0Z"/><path class="cls-6" d="M50.87,81.73h.73l-4.82,7.2h-.69Z"/><path class="cls-6" d="M52.14,85.29l.43-.35a.43.43,0,0,1,.25-.12v0a.43.43,0,0,1-.25-.12l-.3-.23a.39.39,0,0,1-.15-.31V82.55a.6.6,0,0,1,.22-.46l.22-.18a.68.68,0,0,1,.44-.18h2.79a.67.67,0,0,1,.43.18l.22.18a.57.57,0,0,1,.22.46v1.56a.41.41,0,0,1-.14.31l-.31.23a.41.41,0,0,1-.25.12v0a.41.41,0,0,1,.25.12l.43.35a.43.43,0,0,1,.13.36v1.64a.55.55,0,0,1-.22.45l-.22.19a.67.67,0,0,1-.43.18h-3a.7.7,0,0,1-.44-.18l-.22-.19a.58.58,0,0,1-.22-.45V85.65A.43.43,0,0,1,52.14,85.29Zm3.17-.1H53.47l-.18,0s-.08,0-.16.1l-.2.16a.37.37,0,0,0-.13.14.71.71,0,0,0,0,.19v1.3a.63.63,0,0,0,0,.17.24.24,0,0,0,.1.11.38.38,0,0,0,.13.08h2.75l.13-.08a.27.27,0,0,0,.09-.11.49.49,0,0,0,0-.17V85.8a.71.71,0,0,0,0-.19.58.58,0,0,0-.14-.14l-.2-.16c-.07-.06-.12-.1-.16-.1Zm.14-2.82H53.12a.3.3,0,0,0-.12.08c-.06,0-.09.07-.1.1a.77.77,0,0,0,0,.18v1.18a.53.53,0,0,0,0,.21.56.56,0,0,0,.12.13l.24.19a.51.51,0,0,0,.14.09h2a.51.51,0,0,0,.14-.09l.24-.19a.73.73,0,0,0,.13-.13.84.84,0,0,0,0-.21V82.74a.62.62,0,0,0,0-.18.26.26,0,0,0-.09-.1.41.41,0,0,0-.13-.08Z"/><path class="cls-6" d="M59.29,81.73h3.62a.67.67,0,0,1,.43.18l.22.18a.57.57,0,0,1,.22.46v4.74a.55.55,0,0,1-.22.45l-.22.19a.67.67,0,0,1-.43.18H59.29a.67.67,0,0,1-.43-.18l-.22-.19a.55.55,0,0,1-.22-.45V82.55a.57.57,0,0,1,.22-.46l.22-.18A.67.67,0,0,1,59.29,81.73ZM63,87.1V82.74a.62.62,0,0,0,0-.18.26.26,0,0,0-.09-.1.41.41,0,0,0-.13-.08H59.42a.41.41,0,0,0-.13.08.26.26,0,0,0-.09.1.77.77,0,0,0,0,.18V87.1a.63.63,0,0,0,0,.17.27.27,0,0,0,.09.11l.13.08h3.36l.13-.08a.27.27,0,0,0,.09-.11A.49.49,0,0,0,63,87.1Z"/><path class="cls-6" d="M20.37,83.41h0a.24.24,0,0,1,0-.1L21.13,81h.34l-.88,2.66h-.42L19.29,81h.33l.73,2.33A.84.84,0,0,1,20.37,83.41Z"/><path class="cls-6" d="M21.72,83.64,22.63,81h.45L24,83.64h-.32l-.2-.55H22.23l-.19.55Zm1.14-2.43h0a.26.26,0,0,1,0,.11l-.51,1.53h1.1l-.52-1.53A.26.26,0,0,1,22.86,81.21Z"/><path class="cls-6" d="M26.23,83.38v.26H24.58V81h.32v2.4Z"/><path class="cls-6" d="M26.58,81h.32v2.66h-.32Z"/><path class="cls-6" d="M27.66,83.64V81h1.41a.25.25,0,0,1,.18.08l.37.3a.21.21,0,0,1,.09.16v1.59a.24.24,0,0,1-.09.16l-.37.3a.24.24,0,0,1-.18.07ZM29.39,83V81.63a.2.2,0,0,0-.09-.15l-.18-.16a.27.27,0,0,0-.18-.07H28v2.13h1a.29.29,0,0,0,.18-.08l.18-.15A.2.2,0,0,0,29.39,83Z"/><path class="cls-6" d="M19.88,85.55h2v.26H21v2.4h-.32v-2.4h-.84Z"/><path class="cls-6" d="M24,85.55h.32v2.66H24V87H22.57v1.23h-.32V85.55h.32v1.18H24Z"/><path class="cls-6" d="M25,85.55h1.41a.27.27,0,0,1,.18.07l.09.08a.23.23,0,0,1,.09.19v.89a.27.27,0,0,1-.09.2l-.09.08a.34.34,0,0,1-.18.07h-.21l.39.6.06.09a.21.21,0,0,0,.08.05l0,0,.08.06a1,1,0,0,1,0,.11v.15H26.7a.15.15,0,0,1-.08,0l-.08-.05A.47.47,0,0,1,26.4,88l-.5-.82h-.55v1.07H25Zm.32.26v1.07h1l.05,0,0,0v-.9l0-.05-.05,0h-1Z"/><path class="cls-6" d="M29.3,85.55h.32v2.32a.25.25,0,0,1-.09.19l-.1.08a.27.27,0,0,1-.18.07H28a.27.27,0,0,1-.18-.07l-.1-.08a.25.25,0,0,1-.09-.19V85.55h.32v2.24s0,.06,0,.07,0,0,0,0l.05,0H29.2l.05,0s0,0,0,0a.35.35,0,0,0,0-.07Z"/><polygon class="cls-7" points="31.52 83 31.52 86.24 33.96 84.62 31.52 83"/><g id="Layer_2" data-name="Layer 2"><g id="Layer_1-2" data-name="Layer 1-2"><rect class="cls-8" x="140.95" y="78.43" width="40.28" height="33.04"/><path class="cls-9" d="M150.92,107.32v-1.65a1,1,0,0,0-.9-1h-.13a1,1,0,0,0-.92.47,1,1,0,0,0-.87-.47.85.85,0,0,0-.77.39v-.32h-.57v2.62h.58v-1.44a.62.62,0,0,1,.52-.7H148c.38,0,.57.25.57.69v1.46h.58v-1.45a.62.62,0,0,1,.53-.7h.11c.39,0,.58.25.58.69v1.46Zm8.53-2.62h-.94v-.8h-.58v.8h-.52v.52h.53v1.2c0,.61.24,1,.92,1a1.28,1.28,0,0,0,.71-.21l-.17-.49a.89.89,0,0,1-.5.15c-.27,0-.38-.17-.38-.44v-1.19h.93Zm4.87-.07a.76.76,0,0,0-.69.38v-.31h-.57v2.62h.57v-1.47c0-.44.19-.68.55-.68a.92.92,0,0,1,.36.07l.17-.55a1.12,1.12,0,0,0-.4-.07Zm-7.36.27a2,2,0,0,0-1.07-.27c-.67,0-1.1.32-1.1.84s.32.69.9.77l.28,0c.31,0,.46.13.46.28s-.21.31-.6.31a1.36,1.36,0,0,1-.87-.27l-.28.44a1.82,1.82,0,0,0,1.14.34c.76,0,1.2-.35,1.2-.85s-.35-.7-.92-.79l-.27,0c-.25,0-.45-.09-.45-.26s.19-.31.5-.31a1.68,1.68,0,0,1,.82.22Zm15.28-.27a.79.79,0,0,0-.69.38v-.31H171v2.62h.57v-1.47c0-.44.19-.68.55-.68a.84.84,0,0,1,.35.07l.18-.55a1.14,1.14,0,0,0-.41-.07ZM164.89,106a1.32,1.32,0,0,0,1.28,1.37h.12a1.34,1.34,0,0,0,.94-.31l-.27-.46a1.22,1.22,0,0,1-.69.24.85.85,0,0,1-.77-.91.84.84,0,0,1,.77-.77,1.14,1.14,0,0,1,.69.23l.27-.46a1.46,1.46,0,0,0-2.34.94V106Zm5.35,0v-1.3h-.57V105a1,1,0,0,0-.83-.38,1.37,1.37,0,0,0,0,2.74,1,1,0,0,0,.83-.38v.32h.57Zm-2.13,0a.8.8,0,0,1,1.59.09.8.8,0,0,1-.79.75.79.79,0,0,1-.8-.78Zm-6.89-1.37a1.37,1.37,0,0,0,0,2.74h0a1.57,1.57,0,0,0,1.09-.35l-.27-.43a1.28,1.28,0,0,1-.77.28.72.72,0,0,1-.78-.64h1.95V106a1.24,1.24,0,0,0-1.25-1.37Zm0,.51a.66.66,0,0,1,.67.64h-1.37a.67.67,0,0,1,.69-.64Zm14.3.87v-2.37H175V105a1,1,0,0,0-.82-.38,1.37,1.37,0,1,0,0,2.74A1,1,0,0,0,175,107v.32h.55Zm1,.93a.18.18,0,0,1,.1,0l.09.05a.35.35,0,0,1,.05.08.26.26,0,0,1,0,.21.22.22,0,0,1-.05.08l-.09.05a.19.19,0,0,1-.1,0,.28.28,0,0,1-.25-.16.26.26,0,0,1,0-.21.21.21,0,0,1,.06-.08l.08-.05a.23.23,0,0,1,.11,0Zm0,.46a.13.13,0,0,0,.08,0l.06,0a.2.2,0,0,0,0-.27l-.06,0h-.16a.18.18,0,0,0-.07,0,.2.2,0,0,0,0,.27l.07,0a.11.11,0,0,0,.08,0Zm0-.33a.09.09,0,0,1,.07,0,.05.05,0,0,1,0,.05.08.08,0,0,1,0,0,.09.09,0,0,1-.06,0l.08.09h-.06l-.08-.09h0v.09h-.05v-.24Zm-.06.05v.07h.1v0s0,0,0,0Zm-3-1.11a.81.81,0,1,1,0,.06Zm-19.27,0V104.7h-.57V105a1,1,0,0,0-.82-.38,1.37,1.37,0,0,0,0,2.74,1,1,0,0,0,.82-.38v.32h.57ZM152,106a.7.7,0,1,1,0,.06V106Z"/><g id="_Group_" data-name=" Group "><rect class="cls-10" x="156.77" y="84.7" width="8.64" height="15.53"/><path id="_Path_" data-name=" Path " class="cls-11" d="M157.32,92.47a9.84,9.84,0,0,1,3.77-7.77,9.88,9.88,0,1,0,0,15.54A9.86,9.86,0,0,1,157.32,92.47Z"/><path class="cls-12" d="M177.07,92.47a9.88,9.88,0,0,1-16,7.77,9.88,9.88,0,0,0,1.66-13.87,9.72,9.72,0,0,0-1.66-1.67,9.87,9.87,0,0,1,16,7.77Z"/><path class="cls-12" d="M176.13,98.59v-.32h.13v-.06h-.33v.06h.14v.32Zm.63,0v-.38h-.09l-.12.27-.12-.27h-.08v.38h.07V98.3l.11.25h.07l.11-.25v.3Z"/></g></g></g><text class="cls-13" transform="translate(146.19 21.78)">fmrl</text><text class="cls-14" transform="translate(18.72 21.78)">Virtual Card</text></g></g></svg>